<mxfile host="65bd71144e">
    <diagram id="EZ29PhLylF8vI9ptLDk6" name="第 1 页">
        <mxGraphModel dx="1056" dy="461" grid="1" gridSize="10" guides="1" tooltips="1" connect="1" arrows="1" fold="1" page="1" pageScale="1" pageWidth="827" pageHeight="1169" math="0" shadow="0">
            <root>
                <mxCell id="0"/>
                <mxCell id="1" parent="0"/>
                <mxCell id="oqnaxnyl65lQeYSDiRmx-1" value="" style="rounded=0;whiteSpace=wrap;html=1;dashed=1;fontSize=13;" parent="1" vertex="1">
                    <mxGeometry x="160" y="80" width="500" height="170" as="geometry"/>
                </mxCell>
                <mxCell id="oqnaxnyl65lQeYSDiRmx-3" value="broker0" style="text;html=1;strokeColor=none;fillColor=none;align=center;verticalAlign=middle;whiteSpace=wrap;rounded=0;dashed=1;fontSize=13;" parent="1" vertex="1">
                    <mxGeometry x="170" y="90" width="60" height="30" as="geometry"/>
                </mxCell>
                <mxCell id="oqnaxnyl65lQeYSDiRmx-10" style="rounded=0;orthogonalLoop=1;jettySize=auto;html=1;entryX=0;entryY=0.75;entryDx=0;entryDy=0;exitX=1;exitY=0.5;exitDx=0;exitDy=0;fontSize=13;" parent="1" source="oqnaxnyl65lQeYSDiRmx-4" target="oqnaxnyl65lQeYSDiRmx-5" edge="1">
                    <mxGeometry relative="1" as="geometry"/>
                </mxCell>
                <mxCell id="oqnaxnyl65lQeYSDiRmx-11" style="edgeStyle=none;rounded=0;orthogonalLoop=1;jettySize=auto;html=1;entryX=0;entryY=0.5;entryDx=0;entryDy=0;fontSize=13;" parent="1" source="oqnaxnyl65lQeYSDiRmx-4" target="oqnaxnyl65lQeYSDiRmx-6" edge="1">
                    <mxGeometry relative="1" as="geometry"/>
                </mxCell>
                <mxCell id="oqnaxnyl65lQeYSDiRmx-12" style="edgeStyle=none;rounded=0;orthogonalLoop=1;jettySize=auto;html=1;entryX=0;entryY=0.5;entryDx=0;entryDy=0;exitX=1;exitY=0.5;exitDx=0;exitDy=0;fontSize=13;" parent="1" source="oqnaxnyl65lQeYSDiRmx-4" target="oqnaxnyl65lQeYSDiRmx-7" edge="1">
                    <mxGeometry relative="1" as="geometry"/>
                </mxCell>
                <mxCell id="oqnaxnyl65lQeYSDiRmx-4" value="1号分区" style="rounded=0;whiteSpace=wrap;html=1;fontSize=13;" parent="1" vertex="1">
                    <mxGeometry x="190" y="146" width="120" height="40" as="geometry"/>
                </mxCell>
                <mxCell id="oqnaxnyl65lQeYSDiRmx-14" style="edgeStyle=none;rounded=0;orthogonalLoop=1;jettySize=auto;html=1;entryX=0;entryY=0.5;entryDx=0;entryDy=0;fontSize=13;" parent="1" source="oqnaxnyl65lQeYSDiRmx-5" target="oqnaxnyl65lQeYSDiRmx-13" edge="1">
                    <mxGeometry relative="1" as="geometry"/>
                </mxCell>
                <mxCell id="oqnaxnyl65lQeYSDiRmx-5" value="副本1（本地副本）" style="rounded=0;whiteSpace=wrap;html=1;fillColor=none;fontSize=13;" parent="1" vertex="1">
                    <mxGeometry x="344" y="90" width="120" height="40" as="geometry"/>
                </mxCell>
                <mxCell id="oqnaxnyl65lQeYSDiRmx-6" value="副本2（远程副本）" style="rounded=0;whiteSpace=wrap;html=1;dashed=1;fontSize=13;" parent="1" vertex="1">
                    <mxGeometry x="344" y="145" width="120" height="40" as="geometry"/>
                </mxCell>
                <mxCell id="oqnaxnyl65lQeYSDiRmx-7" value="副本3（远程副本）" style="rounded=0;whiteSpace=wrap;html=1;dashed=1;fontSize=13;" parent="1" vertex="1">
                    <mxGeometry x="344" y="200" width="120" height="40" as="geometry"/>
                </mxCell>
                <mxCell id="oqnaxnyl65lQeYSDiRmx-13" value="log" style="rounded=0;whiteSpace=wrap;html=1;fontSize=13;" parent="1" vertex="1">
                    <mxGeometry x="510" y="90" width="120" height="40" as="geometry"/>
                </mxCell>
                <mxCell id="oqnaxnyl65lQeYSDiRmx-15" value="" style="rounded=0;whiteSpace=wrap;html=1;dashed=1;fontSize=13;" parent="1" vertex="1">
                    <mxGeometry x="160" y="270" width="500" height="170" as="geometry"/>
                </mxCell>
                <mxCell id="oqnaxnyl65lQeYSDiRmx-16" value="broker1" style="text;html=1;strokeColor=none;fillColor=none;align=center;verticalAlign=middle;whiteSpace=wrap;rounded=0;dashed=1;fontSize=13;" parent="1" vertex="1">
                    <mxGeometry x="170" y="280" width="60" height="30" as="geometry"/>
                </mxCell>
                <mxCell id="oqnaxnyl65lQeYSDiRmx-17" style="rounded=0;orthogonalLoop=1;jettySize=auto;html=1;entryX=0;entryY=0.75;entryDx=0;entryDy=0;exitX=1;exitY=0.5;exitDx=0;exitDy=0;fontSize=13;" parent="1" source="oqnaxnyl65lQeYSDiRmx-20" target="oqnaxnyl65lQeYSDiRmx-22" edge="1">
                    <mxGeometry relative="1" as="geometry"/>
                </mxCell>
                <mxCell id="oqnaxnyl65lQeYSDiRmx-18" style="edgeStyle=none;rounded=0;orthogonalLoop=1;jettySize=auto;html=1;entryX=0;entryY=0.5;entryDx=0;entryDy=0;fontSize=13;" parent="1" source="oqnaxnyl65lQeYSDiRmx-20" target="oqnaxnyl65lQeYSDiRmx-23" edge="1">
                    <mxGeometry relative="1" as="geometry"/>
                </mxCell>
                <mxCell id="oqnaxnyl65lQeYSDiRmx-19" style="edgeStyle=none;rounded=0;orthogonalLoop=1;jettySize=auto;html=1;entryX=0;entryY=0.5;entryDx=0;entryDy=0;exitX=1;exitY=0.5;exitDx=0;exitDy=0;fontSize=13;" parent="1" source="oqnaxnyl65lQeYSDiRmx-20" target="oqnaxnyl65lQeYSDiRmx-24" edge="1">
                    <mxGeometry relative="1" as="geometry"/>
                </mxCell>
                <mxCell id="oqnaxnyl65lQeYSDiRmx-20" value="1号分区" style="rounded=0;whiteSpace=wrap;html=1;fontSize=13;" parent="1" vertex="1">
                    <mxGeometry x="190" y="336" width="120" height="40" as="geometry"/>
                </mxCell>
                <mxCell id="oqnaxnyl65lQeYSDiRmx-22" value="副本1（远程副本）" style="rounded=0;whiteSpace=wrap;html=1;fillColor=none;dashed=1;fontSize=13;" parent="1" vertex="1">
                    <mxGeometry x="344" y="280" width="120" height="40" as="geometry"/>
                </mxCell>
                <mxCell id="oqnaxnyl65lQeYSDiRmx-37" style="edgeStyle=none;rounded=0;orthogonalLoop=1;jettySize=auto;html=1;entryX=0;entryY=0.5;entryDx=0;entryDy=0;fontSize=13;" parent="1" source="oqnaxnyl65lQeYSDiRmx-23" target="oqnaxnyl65lQeYSDiRmx-25" edge="1">
                    <mxGeometry relative="1" as="geometry"/>
                </mxCell>
                <mxCell id="oqnaxnyl65lQeYSDiRmx-23" value="副本2（本地副本）" style="rounded=0;whiteSpace=wrap;html=1;fillColor=none;fontSize=13;" parent="1" vertex="1">
                    <mxGeometry x="344" y="335" width="120" height="40" as="geometry"/>
                </mxCell>
                <mxCell id="oqnaxnyl65lQeYSDiRmx-24" value="副本3（远程副本）" style="rounded=0;whiteSpace=wrap;html=1;dashed=1;fontSize=13;" parent="1" vertex="1">
                    <mxGeometry x="344" y="390" width="120" height="40" as="geometry"/>
                </mxCell>
                <mxCell id="oqnaxnyl65lQeYSDiRmx-25" value="log" style="rounded=0;whiteSpace=wrap;html=1;fontSize=13;" parent="1" vertex="1">
                    <mxGeometry x="510" y="335" width="120" height="40" as="geometry"/>
                </mxCell>
                <mxCell id="oqnaxnyl65lQeYSDiRmx-26" value="" style="rounded=0;whiteSpace=wrap;html=1;dashed=1;fontSize=13;" parent="1" vertex="1">
                    <mxGeometry x="160" y="460" width="500" height="170" as="geometry"/>
                </mxCell>
                <mxCell id="oqnaxnyl65lQeYSDiRmx-27" value="broker2" style="text;html=1;strokeColor=none;fillColor=none;align=center;verticalAlign=middle;whiteSpace=wrap;rounded=0;dashed=1;fontSize=13;" parent="1" vertex="1">
                    <mxGeometry x="170" y="470" width="60" height="30" as="geometry"/>
                </mxCell>
                <mxCell id="oqnaxnyl65lQeYSDiRmx-28" style="rounded=0;orthogonalLoop=1;jettySize=auto;html=1;entryX=0;entryY=0.75;entryDx=0;entryDy=0;exitX=1;exitY=0.5;exitDx=0;exitDy=0;fontSize=13;" parent="1" source="oqnaxnyl65lQeYSDiRmx-31" target="oqnaxnyl65lQeYSDiRmx-33" edge="1">
                    <mxGeometry relative="1" as="geometry"/>
                </mxCell>
                <mxCell id="oqnaxnyl65lQeYSDiRmx-29" style="edgeStyle=none;rounded=0;orthogonalLoop=1;jettySize=auto;html=1;entryX=0;entryY=0.5;entryDx=0;entryDy=0;fontSize=13;" parent="1" source="oqnaxnyl65lQeYSDiRmx-31" target="oqnaxnyl65lQeYSDiRmx-34" edge="1">
                    <mxGeometry relative="1" as="geometry"/>
                </mxCell>
                <mxCell id="oqnaxnyl65lQeYSDiRmx-30" style="edgeStyle=none;rounded=0;orthogonalLoop=1;jettySize=auto;html=1;entryX=0;entryY=0.5;entryDx=0;entryDy=0;exitX=1;exitY=0.5;exitDx=0;exitDy=0;fontSize=13;" parent="1" source="oqnaxnyl65lQeYSDiRmx-31" target="oqnaxnyl65lQeYSDiRmx-35" edge="1">
                    <mxGeometry relative="1" as="geometry"/>
                </mxCell>
                <mxCell id="oqnaxnyl65lQeYSDiRmx-31" value="1号分区" style="rounded=0;whiteSpace=wrap;html=1;fontSize=13;" parent="1" vertex="1">
                    <mxGeometry x="190" y="526" width="120" height="40" as="geometry"/>
                </mxCell>
                <mxCell id="oqnaxnyl65lQeYSDiRmx-32" style="edgeStyle=none;rounded=0;orthogonalLoop=1;jettySize=auto;html=1;entryX=0;entryY=0.5;entryDx=0;entryDy=0;exitX=1;exitY=0.5;exitDx=0;exitDy=0;fontSize=13;" parent="1" source="oqnaxnyl65lQeYSDiRmx-35" target="oqnaxnyl65lQeYSDiRmx-36" edge="1">
                    <mxGeometry relative="1" as="geometry"/>
                </mxCell>
                <mxCell id="oqnaxnyl65lQeYSDiRmx-33" value="副本1（远程副本）" style="rounded=0;whiteSpace=wrap;html=1;fillColor=none;dashed=1;fontSize=13;" parent="1" vertex="1">
                    <mxGeometry x="344" y="470" width="120" height="40" as="geometry"/>
                </mxCell>
                <mxCell id="oqnaxnyl65lQeYSDiRmx-34" value="副本2（远程副本）" style="rounded=0;whiteSpace=wrap;html=1;dashed=1;fontSize=13;" parent="1" vertex="1">
                    <mxGeometry x="344" y="525" width="120" height="40" as="geometry"/>
                </mxCell>
                <mxCell id="oqnaxnyl65lQeYSDiRmx-35" value="副本3（本地副本）" style="rounded=0;whiteSpace=wrap;html=1;fillColor=none;fontSize=13;" parent="1" vertex="1">
                    <mxGeometry x="344" y="580" width="120" height="40" as="geometry"/>
                </mxCell>
                <mxCell id="oqnaxnyl65lQeYSDiRmx-36" value="log" style="rounded=0;whiteSpace=wrap;html=1;fontSize=13;" parent="1" vertex="1">
                    <mxGeometry x="510" y="580" width="120" height="40" as="geometry"/>
                </mxCell>
                <mxCell id="oqnaxnyl65lQeYSDiRmx-38" value="Leader" style="text;html=1;strokeColor=none;fillColor=none;align=center;verticalAlign=middle;whiteSpace=wrap;rounded=0;fontSize=13;" parent="1" vertex="1">
                    <mxGeometry x="570" y="210" width="60" height="30" as="geometry"/>
                </mxCell>
                <mxCell id="fsBLqIFvQMuYXJvwXyD_-6" value="Leader副本&lt;br style=&quot;font-size: 15px;&quot;&gt;HW:0&lt;span style=&quot;white-space: pre; font-size: 15px;&quot;&gt;&#9;&lt;/span&gt;LEO:5" style="rounded=0;whiteSpace=wrap;html=1;fillColor=none;fontSize=15;" parent="1" vertex="1">
                    <mxGeometry x="299" y="880" width="130" height="60" as="geometry"/>
                </mxCell>
                <mxCell id="fsBLqIFvQMuYXJvwXyD_-7" value="Follower副本&lt;br style=&quot;font-size: 15px;&quot;&gt;HW:0&lt;span style=&quot;white-space: pre; font-size: 15px;&quot;&gt;&#9;&lt;/span&gt;LEO:0" style="rounded=0;whiteSpace=wrap;html=1;fillColor=none;fontSize=15;" parent="1" vertex="1">
                    <mxGeometry x="190" y="1010" width="130" height="60" as="geometry"/>
                </mxCell>
                <mxCell id="fsBLqIFvQMuYXJvwXyD_-8" value="Follower副本&lt;br style=&quot;font-size: 15px;&quot;&gt;HW:0&lt;span style=&quot;white-space: pre; font-size: 15px;&quot;&gt;&#9;&lt;/span&gt;LEO:0" style="rounded=0;whiteSpace=wrap;html=1;fillColor=none;fontSize=15;" parent="1" vertex="1">
                    <mxGeometry x="399" y="1010" width="130" height="60" as="geometry"/>
                </mxCell>
                <mxCell id="fsBLqIFvQMuYXJvwXyD_-13" value="" style="endArrow=classic;html=1;rounded=0;exitX=0.5;exitY=0;exitDx=0;exitDy=0;entryX=0.5;entryY=1;entryDx=0;entryDy=0;" parent="1" target="fsBLqIFvQMuYXJvwXyD_-6" edge="1">
                    <mxGeometry relative="1" as="geometry">
                        <mxPoint x="256" y="1010" as="sourcePoint"/>
                        <mxPoint x="366" y="940" as="targetPoint"/>
                    </mxGeometry>
                </mxCell>
                <mxCell id="fsBLqIFvQMuYXJvwXyD_-14" value="LEO=0" style="edgeLabel;resizable=0;html=1;align=center;verticalAlign=middle;fillColor=#FFFFFF;fontSize=15;" parent="fsBLqIFvQMuYXJvwXyD_-13" connectable="0" vertex="1">
                    <mxGeometry relative="1" as="geometry"/>
                </mxCell>
                <mxCell id="fsBLqIFvQMuYXJvwXyD_-15" value="" style="endArrow=classic;html=1;rounded=0;exitX=0.5;exitY=0;exitDx=0;exitDy=0;entryX=0.5;entryY=1;entryDx=0;entryDy=0;" parent="1" source="fsBLqIFvQMuYXJvwXyD_-8" target="fsBLqIFvQMuYXJvwXyD_-6" edge="1">
                    <mxGeometry relative="1" as="geometry">
                        <mxPoint x="266" y="1020" as="sourcePoint"/>
                        <mxPoint x="376" y="950" as="targetPoint"/>
                    </mxGeometry>
                </mxCell>
                <mxCell id="fsBLqIFvQMuYXJvwXyD_-16" value="LEO=0" style="edgeLabel;resizable=0;html=1;align=center;verticalAlign=middle;fillColor=#FFFFFF;fontSize=15;" parent="fsBLqIFvQMuYXJvwXyD_-15" connectable="0" vertex="1">
                    <mxGeometry relative="1" as="geometry"/>
                </mxCell>
                <mxCell id="fsBLqIFvQMuYXJvwXyD_-17" value="Leader副本&lt;br style=&quot;font-size: 15px;&quot;&gt;HW:0&lt;span style=&quot;white-space: pre; font-size: 15px;&quot;&gt;&#9;&lt;/span&gt;LEO:10" style="rounded=0;whiteSpace=wrap;html=1;fillColor=none;fontSize=15;" parent="1" vertex="1">
                    <mxGeometry x="758" y="880" width="130" height="60" as="geometry"/>
                </mxCell>
                <mxCell id="fsBLqIFvQMuYXJvwXyD_-18" value="Follower副本&lt;br style=&quot;font-size: 15px;&quot;&gt;HW:0&lt;span style=&quot;white-space: pre; font-size: 15px;&quot;&gt;&#9;&lt;/span&gt;LEO:3" style="rounded=0;whiteSpace=wrap;html=1;fillColor=none;fontSize=15;" parent="1" vertex="1">
                    <mxGeometry x="649" y="1010" width="130" height="60" as="geometry"/>
                </mxCell>
                <mxCell id="fsBLqIFvQMuYXJvwXyD_-19" value="Follower副本&lt;br style=&quot;font-size: 15px;&quot;&gt;HW:0&lt;span style=&quot;white-space: pre; font-size: 15px;&quot;&gt;&#9;&lt;/span&gt;LEO:4" style="rounded=0;whiteSpace=wrap;html=1;fillColor=none;fontSize=15;" parent="1" vertex="1">
                    <mxGeometry x="858" y="1010" width="130" height="60" as="geometry"/>
                </mxCell>
                <mxCell id="fsBLqIFvQMuYXJvwXyD_-20" value="" style="endArrow=classic;html=1;rounded=0;exitX=0.5;exitY=1;exitDx=0;exitDy=0;entryX=0.5;entryY=0;entryDx=0;entryDy=0;fontSize=15;" parent="1" source="fsBLqIFvQMuYXJvwXyD_-17" target="fsBLqIFvQMuYXJvwXyD_-18" edge="1">
                    <mxGeometry relative="1" as="geometry">
                        <mxPoint x="715" y="1010" as="sourcePoint"/>
                        <mxPoint x="829" y="1100" as="targetPoint"/>
                    </mxGeometry>
                </mxCell>
                <mxCell id="fsBLqIFvQMuYXJvwXyD_-21" value="HW=0" style="edgeLabel;resizable=0;html=1;align=center;verticalAlign=middle;fillColor=#FFFFFF;fontSize=15;" parent="fsBLqIFvQMuYXJvwXyD_-20" connectable="0" vertex="1">
                    <mxGeometry relative="1" as="geometry"/>
                </mxCell>
                <mxCell id="fsBLqIFvQMuYXJvwXyD_-22" value="" style="endArrow=classic;html=1;rounded=0;entryX=0.5;entryY=0;entryDx=0;entryDy=0;exitX=0.5;exitY=1;exitDx=0;exitDy=0;fontSize=15;" parent="1" source="fsBLqIFvQMuYXJvwXyD_-17" target="fsBLqIFvQMuYXJvwXyD_-19" edge="1">
                    <mxGeometry relative="1" as="geometry">
                        <mxPoint x="1009" y="920" as="sourcePoint"/>
                        <mxPoint x="835" y="950" as="targetPoint"/>
                    </mxGeometry>
                </mxCell>
                <mxCell id="fsBLqIFvQMuYXJvwXyD_-23" value="HW=0" style="edgeLabel;resizable=0;html=1;align=center;verticalAlign=middle;fillColor=#FFFFFF;fontSize=15;" parent="fsBLqIFvQMuYXJvwXyD_-22" connectable="0" vertex="1">
                    <mxGeometry relative="1" as="geometry"/>
                </mxCell>
                <mxCell id="fsBLqIFvQMuYXJvwXyD_-24" value="Leader副本&lt;br style=&quot;font-size: 15px;&quot;&gt;HW:3&lt;span style=&quot;white-space: pre; font-size: 15px;&quot;&gt;&#9;&lt;/span&gt;LEO:15" style="rounded=0;whiteSpace=wrap;html=1;fillColor=none;fontSize=15;" parent="1" vertex="1">
                    <mxGeometry x="769" y="1210" width="130" height="60" as="geometry"/>
                </mxCell>
                <mxCell id="fsBLqIFvQMuYXJvwXyD_-25" value="Follower副本&lt;br style=&quot;font-size: 15px;&quot;&gt;HW:0&lt;span style=&quot;white-space: pre; font-size: 15px;&quot;&gt;&#9;&lt;/span&gt;LEO:3" style="rounded=0;whiteSpace=wrap;html=1;fillColor=none;fontSize=15;" parent="1" vertex="1">
                    <mxGeometry x="660" y="1340" width="130" height="60" as="geometry"/>
                </mxCell>
                <mxCell id="fsBLqIFvQMuYXJvwXyD_-26" value="Follower副本&lt;br style=&quot;font-size: 15px;&quot;&gt;HW:0&lt;span style=&quot;white-space: pre; font-size: 15px;&quot;&gt;&#9;&lt;/span&gt;LEO:4" style="rounded=0;whiteSpace=wrap;html=1;fillColor=none;fontSize=15;" parent="1" vertex="1">
                    <mxGeometry x="869" y="1340" width="130" height="60" as="geometry"/>
                </mxCell>
                <mxCell id="fsBLqIFvQMuYXJvwXyD_-27" value="" style="endArrow=classic;html=1;rounded=0;exitX=0.5;exitY=0;exitDx=0;exitDy=0;entryX=0.5;entryY=1;entryDx=0;entryDy=0;fontSize=15;" parent="1" target="fsBLqIFvQMuYXJvwXyD_-24" edge="1">
                    <mxGeometry relative="1" as="geometry">
                        <mxPoint x="726" y="1340" as="sourcePoint"/>
                        <mxPoint x="836" y="1270" as="targetPoint"/>
                    </mxGeometry>
                </mxCell>
                <mxCell id="fsBLqIFvQMuYXJvwXyD_-28" value="LEO=3" style="edgeLabel;resizable=0;html=1;align=center;verticalAlign=middle;fillColor=#FFFFFF;fontSize=15;" parent="fsBLqIFvQMuYXJvwXyD_-27" connectable="0" vertex="1">
                    <mxGeometry relative="1" as="geometry"/>
                </mxCell>
                <mxCell id="fsBLqIFvQMuYXJvwXyD_-29" value="" style="endArrow=classic;html=1;rounded=0;exitX=0.5;exitY=0;exitDx=0;exitDy=0;entryX=0.5;entryY=1;entryDx=0;entryDy=0;fontSize=15;" parent="1" source="fsBLqIFvQMuYXJvwXyD_-26" target="fsBLqIFvQMuYXJvwXyD_-24" edge="1">
                    <mxGeometry relative="1" as="geometry">
                        <mxPoint x="736" y="1350" as="sourcePoint"/>
                        <mxPoint x="846" y="1280" as="targetPoint"/>
                    </mxGeometry>
                </mxCell>
                <mxCell id="fsBLqIFvQMuYXJvwXyD_-30" value="LEO=4" style="edgeLabel;resizable=0;html=1;align=center;verticalAlign=middle;fillColor=#FFFFFF;fontSize=15;" parent="fsBLqIFvQMuYXJvwXyD_-29" connectable="0" vertex="1">
                    <mxGeometry relative="1" as="geometry"/>
                </mxCell>
                <mxCell id="fsBLqIFvQMuYXJvwXyD_-31" value="Leader副本&lt;br style=&quot;font-size: 15px;&quot;&gt;HW:3&lt;span style=&quot;white-space: pre; font-size: 15px;&quot;&gt;&#9;&lt;/span&gt;LEO:20" style="rounded=0;whiteSpace=wrap;html=1;fillColor=none;fontSize=15;" parent="1" vertex="1">
                    <mxGeometry x="299" y="1210" width="130" height="60" as="geometry"/>
                </mxCell>
                <mxCell id="fsBLqIFvQMuYXJvwXyD_-32" value="Follower副本&lt;br style=&quot;font-size: 15px;&quot;&gt;HW:3&lt;span style=&quot;white-space: pre; font-size: 15px;&quot;&gt;&#9;&lt;/span&gt;LEO:6" style="rounded=0;whiteSpace=wrap;html=1;fillColor=none;fontSize=15;" parent="1" vertex="1">
                    <mxGeometry x="190" y="1340" width="130" height="60" as="geometry"/>
                </mxCell>
                <mxCell id="fsBLqIFvQMuYXJvwXyD_-33" value="Follower副本&lt;br style=&quot;font-size: 15px;&quot;&gt;HW:3&lt;span style=&quot;white-space: pre; font-size: 15px;&quot;&gt;&#9;&lt;/span&gt;LEO:8" style="rounded=0;whiteSpace=wrap;html=1;fillColor=none;fontSize=15;" parent="1" vertex="1">
                    <mxGeometry x="399" y="1340" width="130" height="60" as="geometry"/>
                </mxCell>
                <mxCell id="fsBLqIFvQMuYXJvwXyD_-34" value="" style="endArrow=classic;html=1;rounded=0;exitX=0.5;exitY=1;exitDx=0;exitDy=0;entryX=0.5;entryY=0;entryDx=0;entryDy=0;fontSize=15;" parent="1" source="fsBLqIFvQMuYXJvwXyD_-31" target="fsBLqIFvQMuYXJvwXyD_-32" edge="1">
                    <mxGeometry relative="1" as="geometry">
                        <mxPoint x="256" y="1340" as="sourcePoint"/>
                        <mxPoint x="370" y="1430" as="targetPoint"/>
                    </mxGeometry>
                </mxCell>
                <mxCell id="fsBLqIFvQMuYXJvwXyD_-35" value="HW=3" style="edgeLabel;resizable=0;html=1;align=center;verticalAlign=middle;fillColor=#FFFFFF;fontSize=15;" parent="fsBLqIFvQMuYXJvwXyD_-34" connectable="0" vertex="1">
                    <mxGeometry relative="1" as="geometry"/>
                </mxCell>
                <mxCell id="fsBLqIFvQMuYXJvwXyD_-36" value="" style="endArrow=classic;html=1;rounded=0;entryX=0.5;entryY=0;entryDx=0;entryDy=0;exitX=0.5;exitY=1;exitDx=0;exitDy=0;fontSize=15;" parent="1" source="fsBLqIFvQMuYXJvwXyD_-31" target="fsBLqIFvQMuYXJvwXyD_-33" edge="1">
                    <mxGeometry relative="1" as="geometry">
                        <mxPoint x="550" y="1250" as="sourcePoint"/>
                        <mxPoint x="376" y="1280" as="targetPoint"/>
                    </mxGeometry>
                </mxCell>
                <mxCell id="fsBLqIFvQMuYXJvwXyD_-37" value="HW=3" style="edgeLabel;resizable=0;html=1;align=center;verticalAlign=middle;fillColor=#FFFFFF;fontSize=15;" parent="fsBLqIFvQMuYXJvwXyD_-36" connectable="0" vertex="1">
                    <mxGeometry relative="1" as="geometry">
                        <mxPoint x="1" as="offset"/>
                    </mxGeometry>
                </mxCell>
                <mxCell id="fsBLqIFvQMuYXJvwXyD_-40" value="" style="shape=singleArrow;whiteSpace=wrap;html=1;fillColor=#FFFFFF;" parent="1" vertex="1">
                    <mxGeometry x="539" y="890" width="80" height="60" as="geometry"/>
                </mxCell>
                <mxCell id="fsBLqIFvQMuYXJvwXyD_-41" value="" style="shape=singleArrow;whiteSpace=wrap;html=1;fillColor=#FFFFFF;direction=south;fontSize=15;" parent="1" vertex="1">
                    <mxGeometry x="801" y="1103" width="60" height="80" as="geometry"/>
                </mxCell>
                <mxCell id="fsBLqIFvQMuYXJvwXyD_-43" value="" style="shape=singleArrow;whiteSpace=wrap;html=1;fillColor=#FFFFFF;direction=west;" parent="1" vertex="1">
                    <mxGeometry x="549" y="1216" width="80" height="60" as="geometry"/>
                </mxCell>
                <mxCell id="aHCzqFJczM8sTAtXJ5r8-2" value="kafka副本同步过程" style="text;html=1;strokeColor=none;fillColor=none;align=center;verticalAlign=middle;whiteSpace=wrap;rounded=0;fontSize=16;" parent="1" vertex="1">
                    <mxGeometry x="539" y="774" width="201" height="40" as="geometry"/>
                </mxCell>
                <mxCell id="aHCzqFJczM8sTAtXJ5r8-3" value="Follower" style="text;html=1;strokeColor=none;fillColor=none;align=center;verticalAlign=middle;whiteSpace=wrap;rounded=0;fontSize=13;" parent="1" vertex="1">
                    <mxGeometry x="570" y="395" width="60" height="30" as="geometry"/>
                </mxCell>
                <mxCell id="aHCzqFJczM8sTAtXJ5r8-4" value="Follower" style="text;html=1;strokeColor=none;fillColor=none;align=center;verticalAlign=middle;whiteSpace=wrap;rounded=0;fontSize=13;" parent="1" vertex="1">
                    <mxGeometry x="570" y="470" width="60" height="30" as="geometry"/>
                </mxCell>
                <mxCell id="aHCzqFJczM8sTAtXJ5r8-7" value="" style="endArrow=classic;html=1;rounded=0;fontSize=16;strokeWidth=3;" parent="1" edge="1">
                    <mxGeometry width="50" height="50" relative="1" as="geometry">
                        <mxPoint x="230" y="1620" as="sourcePoint"/>
                        <mxPoint x="230" y="2220" as="targetPoint"/>
                    </mxGeometry>
                </mxCell>
                <mxCell id="aHCzqFJczM8sTAtXJ5r8-9" value="时间线" style="edgeLabel;html=1;align=center;verticalAlign=middle;resizable=0;points=[];fontSize=16;" parent="aHCzqFJczM8sTAtXJ5r8-7" vertex="1" connectable="0">
                    <mxGeometry x="-0.1161" y="-1" relative="1" as="geometry">
                        <mxPoint as="offset"/>
                    </mxGeometry>
                </mxCell>
                <mxCell id="aHCzqFJczM8sTAtXJ5r8-16" value="A（Leader）" style="text;html=1;strokeColor=none;fillColor=none;align=center;verticalAlign=middle;whiteSpace=wrap;rounded=0;shadow=0;dashed=1;fontSize=16;" parent="1" vertex="1">
                    <mxGeometry x="384" y="1560" width="121" height="30" as="geometry"/>
                </mxCell>
                <mxCell id="aHCzqFJczM8sTAtXJ5r8-19" value="m1" style="rounded=1;whiteSpace=wrap;html=1;shadow=0;fontSize=16;fillColor=none;" parent="1" vertex="1">
                    <mxGeometry x="384" y="1604" width="121" height="50" as="geometry"/>
                </mxCell>
                <mxCell id="aHCzqFJczM8sTAtXJ5r8-20" value="m2" style="rounded=1;whiteSpace=wrap;html=1;shadow=0;fontSize=16;fillColor=none;" parent="1" vertex="1">
                    <mxGeometry x="385" y="1654" width="121" height="50" as="geometry"/>
                </mxCell>
                <mxCell id="aHCzqFJczM8sTAtXJ5r8-21" value="" style="rounded=1;whiteSpace=wrap;html=1;shadow=0;fontSize=16;dashed=1;fillColor=none;" parent="1" vertex="1">
                    <mxGeometry x="385" y="1704" width="121" height="50" as="geometry"/>
                </mxCell>
                <mxCell id="aHCzqFJczM8sTAtXJ5r8-22" value="" style="shape=singleArrow;whiteSpace=wrap;html=1;shadow=0;fontSize=16;" parent="1" vertex="1">
                    <mxGeometry x="310" y="1715" width="60" height="30" as="geometry"/>
                </mxCell>
                <mxCell id="aHCzqFJczM8sTAtXJ5r8-23" value="HW" style="text;html=1;strokeColor=none;fillColor=none;align=center;verticalAlign=middle;whiteSpace=wrap;rounded=0;shadow=0;fontSize=16;" parent="1" vertex="1">
                    <mxGeometry x="250" y="1717" width="60" height="30" as="geometry"/>
                </mxCell>
                <mxCell id="aHCzqFJczM8sTAtXJ5r8-24" value="B（&lt;span style=&quot;font-size: 15px;&quot;&gt;Follower&lt;/span&gt;）" style="text;html=1;strokeColor=none;fillColor=none;align=center;verticalAlign=middle;whiteSpace=wrap;rounded=0;shadow=0;dashed=1;fontSize=16;" parent="1" vertex="1">
                    <mxGeometry x="655" y="1560" width="111" height="30" as="geometry"/>
                </mxCell>
                <mxCell id="aHCzqFJczM8sTAtXJ5r8-25" value="m1" style="rounded=1;whiteSpace=wrap;html=1;shadow=0;fontSize=16;" parent="1" vertex="1">
                    <mxGeometry x="649" y="1604" width="121" height="50" as="geometry"/>
                </mxCell>
                <mxCell id="aHCzqFJczM8sTAtXJ5r8-27" value="m2" style="rounded=1;whiteSpace=wrap;html=1;shadow=0;fontSize=16;" parent="1" vertex="1">
                    <mxGeometry x="649" y="1654" width="121" height="50" as="geometry"/>
                </mxCell>
                <mxCell id="aHCzqFJczM8sTAtXJ5r8-28" value="&lt;span style=&quot;color: rgb(26, 26, 26); font-family: &amp;quot;lucida grande&amp;quot;, &amp;quot;lucida sans unicode&amp;quot;, lucida, helvetica, &amp;quot;Hiragino Sans GB&amp;quot;, &amp;quot;Microsoft YaHei&amp;quot;, &amp;quot;WenQuanYi Micro Hei&amp;quot;, sans-serif; text-align: start; background-color: rgb(255, 255, 255);&quot;&gt;B携带自身的LEO拉取A中的消息，此时B重启，B还没有从A中拉取消息去更新自身的HW&lt;/span&gt;" style="text;html=1;strokeColor=none;fillColor=none;align=center;verticalAlign=middle;whiteSpace=wrap;rounded=0;shadow=0;fontSize=16;" parent="1" vertex="1">
                    <mxGeometry x="370" y="1830" width="441" height="50" as="geometry"/>
                </mxCell>
                <mxCell id="aHCzqFJczM8sTAtXJ5r8-29" value="" style="shape=singleArrow;whiteSpace=wrap;html=1;shadow=0;fontSize=16;direction=west;" parent="1" vertex="1">
                    <mxGeometry x="790" y="1664" width="60" height="30" as="geometry"/>
                </mxCell>
                <mxCell id="aHCzqFJczM8sTAtXJ5r8-30" value="HW" style="text;html=1;strokeColor=none;fillColor=none;align=center;verticalAlign=middle;whiteSpace=wrap;rounded=0;shadow=0;fontSize=16;" parent="1" vertex="1">
                    <mxGeometry x="852" y="1665" width="60" height="30" as="geometry"/>
                </mxCell>
                <mxCell id="aHCzqFJczM8sTAtXJ5r8-32" value="" style="shape=singleArrow;direction=south;whiteSpace=wrap;html=1;shadow=0;fontSize=16;fillColor=#FFFFFF;labelBackgroundColor=none;" parent="1" vertex="1">
                    <mxGeometry x="553.5" y="1770" width="51" height="40" as="geometry"/>
                </mxCell>
                <mxCell id="aHCzqFJczM8sTAtXJ5r8-34" value="" style="rounded=1;whiteSpace=wrap;html=1;shadow=0;fontSize=16;dashed=1;" parent="1" vertex="1">
                    <mxGeometry x="650" y="1704" width="121" height="50" as="geometry"/>
                </mxCell>
            </root>
        </mxGraphModel>
    </diagram>
</mxfile>